# xmcd
#
# Track frame offsets:
# 150
# 12187
# 27500
# 39562
# 59275
#
# Disc length: 1118 seconds
#
# Revision: 0
# Processed by: cddbd v1.5.1PL2 Copyright (c) Steve Scherf et al.
# Submitted via: Audion 3.0.2 (http://www.panic.com/audion/)
#
DISCID=38045c05
DTITLE=Ratatataoo - -
DYEAR=1900
DGENRE=
TTITLE0=Sånn kan det  gå
TTITLE1=Mør
TTITLE2=Smaken av stål
TTITLE3=Grusomt vakker
TTITLE4=Karawane
EXTD=
EXTT0=
EXTT1=
EXTT2=
EXTT3=
EXTT4=
PLAYORDER=
